<?xml version="1.0" standalone="no"?>
<!DOCTYPE svg PUBLIC "-//W3C//DTD SVG 20010904//EN"
 "http://www.w3.org/TR/2001/REC-SVG-20010904/DTD/svg10.dtd">
<svg version="1.0" xmlns="http://www.w3.org/2000/svg"
 width="48.000000pt" height="48.000000pt" viewBox="0 0 48.000000 48.000000"
 preserveAspectRatio="xMidYMid meet">
<metadata>
Created by potrace 1.10, written by Peter Selinger 2001-2011
</metadata>
<g transform="translate(0.000000,48.000000) scale(0.100000,-0.100000)"
fill="#000000" stroke="none">
<path d="M106 353 c26 -37 58 -83 72 -101 l24 -33 -72 -80 c-52 -58 -67 -79
-53 -79 10 0 45 29 79 66 l61 67 44 -64 45 -64 57 -3 58 -3 -66 93 c-36 51
-68 99 -71 105 -3 7 24 47 61 88 53 59 63 75 48 75 -13 0 -41 -25 -74 -65 -30
-36 -56 -65 -59 -64 -3 0 -23 28 -45 62 l-40 62 -58 3 -59 3 48 -68z m94 -4
c33 -48 123 -198 136 -227 15 -31 -11 -23 -42 13 -37 43 -184 250 -184 260 0
3 12 5 28 5 21 0 34 -11 62 -51z"/>
</g>
</svg>
